<svg width="338" height="225" viewBox="0 0 338 225" fill="none" xmlns="http://www.w3.org/2000/svg">
<path d="M300.572 67.6215L296.259 88.479L293.483 85.7745L288.76 89.1405L285.15 84.663L277.056 90.54L270.139 78.9885L262.423 83.502L259.363 79.29L249.566 84.8025L246.618 78.498L253.487 45.2835L290.306 52.875L300.572 67.6215Z" fill="#EBEBEB"/>
<path d="M290.306 52.875L300.572 67.6215L287.8 64.989L290.306 52.875Z" fill="#DBDBDB"/>
<path d="M295.34 92.646L289.017 123.246L239.421 113.022L245.699 82.6695L248.646 88.9695L258.448 83.457L261.504 87.669L269.224 83.16L276.137 94.7115L284.235 88.8345L287.841 93.3075L292.568 89.946L295.34 92.646Z" fill="#EBEBEB"/>
<path d="M224.355 89.0595L173.813 92.1825L169.798 27.4005L207.329 25.0785L221.106 36.621L224.355 89.0595Z" fill="#EBEBEB"/>
<path d="M207.329 25.0785L221.106 36.621L208.091 37.4265L207.329 25.0785Z" fill="#DBDBDB"/>
<path d="M193.336 68.67L193.138 67.2075C192.628 64.179 193.458 60.7905 196.094 57.249C198.474 54.099 199.762 51.849 199.618 49.293C199.456 46.413 197.541 44.595 193.976 44.739C191.939 44.8446 189.982 45.5666 188.365 46.809L186.81 43.3305C188.613 41.868 191.768 40.788 194.765 40.6305C201.268 40.2705 204.431 44.1135 204.679 48.402C204.896 52.2405 202.904 55.125 200.371 58.4955C198.045 61.569 197.284 64.1025 197.613 66.969L197.752 68.436L193.336 68.67ZM192.534 76.6395C192.417 74.5515 193.746 73.0035 195.724 72.8955C197.703 72.7875 199.145 74.1735 199.262 76.266C199.37 78.2415 198.158 79.8345 196.067 79.9515C194.071 80.064 192.628 78.615 192.516 76.6395H192.534Z" fill="#DBDBDB"/>
<path d="M66.9149 57.6495L61.8314 55.35L61.1239 56.9025C61.0194 57.1244 60.8564 57.3136 60.6523 57.45C60.4483 57.5863 60.2109 57.6646 59.9656 57.6765C59.6863 57.6856 59.4078 57.7127 59.1319 57.7575C58.8897 57.7934 58.6423 57.763 58.4161 57.6694C58.1899 57.5759 57.9934 57.4228 57.8475 57.2265L56.8515 55.836L52.3133 59.085L53.3093 60.4755C53.4478 60.6762 53.5293 60.9106 53.5452 61.1538C53.5611 61.3971 53.5107 61.64 53.3994 61.857C53.2709 62.1045 53.1551 62.3583 53.0524 62.6175C52.9631 62.846 52.8132 63.046 52.6186 63.1958C52.4241 63.3457 52.1923 63.4398 51.9483 63.468L50.2493 63.6345L50.7946 69.183L52.5026 69.012C52.7476 68.9924 52.9932 69.0399 53.2132 69.1493C53.4331 69.2588 53.619 69.426 53.7509 69.633C53.8231 69.75 53.8997 69.8625 53.9808 69.975C54.0619 70.0875 54.143 70.1955 54.2287 70.3035C54.3842 70.4924 54.4842 70.7207 54.5176 70.963C54.551 71.2053 54.5165 71.4521 54.4179 71.676L53.7059 73.242L58.7939 75.546L59.5015 73.9845C59.6069 73.7628 59.7709 73.574 59.9758 73.4384C60.1806 73.3029 60.4186 73.2256 60.6642 73.215C60.9404 73.2036 61.2158 73.1766 61.4889 73.134C61.7311 73.0981 61.9785 73.1285 62.2047 73.222C62.4309 73.3155 62.6274 73.4686 62.7733 73.665L63.7693 75.0555L68.312 71.8065L67.316 70.416C67.1732 70.2171 67.0891 69.9823 67.0732 69.7381C67.0572 69.4939 67.1101 69.2502 67.2259 69.0345C67.3514 68.7884 67.4642 68.5361 67.5639 68.2785C67.6506 68.0482 67.7998 67.8467 67.9948 67.6965C68.1899 67.5462 68.423 67.4532 68.668 67.428L70.376 67.257L69.8262 61.7085L68.1182 61.875C67.8748 61.8963 67.6302 61.85 67.4115 61.7412C67.1928 61.6324 67.0084 61.4654 66.8789 61.2585C66.8023 61.1415 66.7256 61.029 66.6445 60.9165C66.5634 60.804 66.4823 60.6915 66.3967 60.588C66.2422 60.3967 66.1429 60.167 66.1096 59.9235C66.0762 59.6801 66.11 59.4322 66.2074 59.2065L66.9149 57.6495ZM64.0307 62.784C64.5577 63.5183 64.8547 64.3922 64.8843 65.2952C64.9139 66.1981 64.6746 67.0895 64.1968 67.8567C63.719 68.6239 63.024 69.2323 62.1999 69.605C61.3757 69.9778 60.4594 70.0981 59.5667 69.9508C58.674 69.8036 57.8452 69.3952 57.1849 68.7775C56.5247 68.1598 56.0627 67.3605 55.8575 66.4806C55.6522 65.6008 55.7129 64.6799 56.0318 63.8344C56.3508 62.989 56.9136 62.257 57.6492 61.731C58.6354 61.0258 59.8616 60.7406 61.0583 60.9381C62.255 61.1356 63.3242 61.7995 64.0307 62.784Z" fill="#EBEBEB"/>
<path d="M296.71 131.27L293.321 133.223L293.92 134.258C294.01 134.406 294.054 134.577 294.049 134.75C294.043 134.924 293.988 135.092 293.889 135.234C293.785 135.396 293.686 135.563 293.596 135.738C293.522 135.893 293.405 136.024 293.259 136.115C293.112 136.206 292.943 136.253 292.771 136.251H291.581V140.162H292.78C292.952 140.159 293.121 140.207 293.268 140.298C293.414 140.388 293.531 140.519 293.605 140.675C293.695 140.85 293.794 141.017 293.898 141.179C293.997 141.321 294.052 141.489 294.058 141.662C294.063 141.835 294.019 142.006 293.929 142.155L293.33 143.19L296.719 145.143L297.323 144.104C297.41 143.956 297.537 143.836 297.689 143.756C297.841 143.677 298.012 143.641 298.184 143.654H298.76C298.932 143.642 299.103 143.678 299.254 143.757C299.406 143.837 299.533 143.956 299.621 144.104L300.225 145.148L303.61 143.195L303.01 142.155C302.925 142.006 302.883 141.836 302.89 141.664C302.896 141.492 302.95 141.326 303.046 141.183C303.15 141.021 303.249 140.85 303.339 140.679C303.413 140.524 303.53 140.393 303.676 140.302C303.823 140.211 303.992 140.164 304.164 140.166H305.363V136.256H304.155C303.983 136.258 303.814 136.21 303.667 136.119C303.521 136.029 303.404 135.898 303.33 135.743C303.24 135.572 303.141 135.401 303.037 135.239C302.941 135.096 302.887 134.929 302.881 134.758C302.874 134.586 302.916 134.416 303.001 134.267L303.601 133.227L300.216 131.274L299.612 132.3C299.525 132.447 299.398 132.568 299.246 132.647C299.094 132.727 298.923 132.762 298.751 132.75H298.463H298.175C298.003 132.762 297.831 132.726 297.679 132.646C297.526 132.567 297.398 132.447 297.309 132.3L296.71 131.27ZM298.463 135.005C299.098 135.004 299.719 135.191 300.247 135.543C300.776 135.894 301.188 136.395 301.431 136.98C301.675 137.566 301.738 138.211 301.615 138.832C301.491 139.454 301.185 140.026 300.736 140.474C300.287 140.922 299.715 141.228 299.092 141.351C298.47 141.475 297.824 141.411 297.237 141.168C296.651 140.925 296.15 140.513 295.798 139.986C295.445 139.458 295.258 138.838 295.259 138.204C295.258 137.783 295.341 137.367 295.501 136.978C295.662 136.59 295.898 136.236 296.196 135.939C296.493 135.641 296.847 135.405 297.236 135.244C297.625 135.083 298.042 135 298.463 135V135.005Z" fill="#EBEBEB"/>
<path d="M77.1992 41.022L74.0941 43.398L74.8106 44.3475C74.9175 44.4828 74.9832 44.6459 75 44.8174C75.0168 44.9889 74.9839 45.1616 74.9053 45.315C74.819 45.4901 74.7438 45.6705 74.6799 45.855C74.6244 46.0175 74.5245 46.1613 74.3915 46.2702C74.2586 46.3792 74.0978 46.4489 73.9273 46.4715L72.7375 46.6245L73.2423 50.499L74.4321 50.346C74.6052 50.3219 74.7817 50.3471 74.9412 50.4188C75.1007 50.4904 75.2366 50.6056 75.3334 50.751C75.4419 50.9075 75.5593 51.0578 75.6849 51.201C75.801 51.3285 75.878 51.4866 75.9068 51.6565C75.9355 51.8264 75.9148 52.001 75.8472 52.1595L75.3965 53.2665L79.0018 54.765L79.4525 53.658C79.5196 53.4992 79.6298 53.3623 79.7708 53.2629C79.9118 53.1635 80.0779 53.1055 80.2502 53.0955L80.5386 53.064L80.8225 53.019C80.9893 52.9876 81.1615 53.0025 81.3204 53.062C81.4793 53.1215 81.6189 53.2233 81.7238 53.3565L82.4584 54.315L85.5635 51.939L84.8379 50.9895C84.7332 50.8523 84.6688 50.6887 84.652 50.5169C84.6353 50.3452 84.6669 50.1722 84.7433 50.0175C84.8287 49.8435 84.904 49.6647 84.9686 49.482C85.0242 49.3195 85.1241 49.1756 85.257 49.0667C85.39 48.9578 85.5508 48.8881 85.7213 48.8655L86.911 48.7125L86.4063 44.838L85.2165 44.991C85.0438 45.0156 84.8676 44.991 84.7082 44.9202C84.5487 44.8493 84.4125 44.7351 84.3152 44.5905C84.2025 44.4285 84.0853 44.2755 83.9592 44.1405C83.8542 44.0103 83.7862 43.8542 83.7624 43.6887C83.7386 43.5233 83.7599 43.3544 83.8239 43.2L84.2746 42.093L80.6693 40.5945L80.2186 41.7015C80.1507 41.8597 80.0402 41.996 79.8994 42.0953C79.7586 42.1946 79.593 42.253 79.4209 42.264L79.1325 42.291L78.8666 42.3C78.6998 42.3314 78.5276 42.3165 78.3687 42.257C78.2098 42.1975 78.0703 42.0956 77.9653 41.9625L77.1992 41.022ZM79.4209 44.5005C80.0487 44.4199 80.6863 44.5268 81.2533 44.8076C81.8203 45.0885 82.2914 45.5307 82.607 46.0785C82.9226 46.6263 83.0686 47.2552 83.0267 47.8858C82.9847 48.5164 82.7567 49.1205 82.3714 49.6219C81.986 50.1232 81.4606 50.4994 80.8613 50.7029C80.2621 50.9065 79.616 50.9282 79.0044 50.7655C78.3928 50.6027 77.8432 50.2628 77.4248 49.7885C77.0065 49.3142 76.7382 48.7268 76.6538 48.1005C76.5975 47.6825 76.6245 47.2575 76.7333 46.85C76.8421 46.4425 77.0304 46.0604 77.2876 45.7259C77.5448 45.3913 77.8656 45.1108 78.2317 44.9005C78.5979 44.6902 79.002 44.5543 79.4209 44.5005Z" fill="#EBEBEB"/>
<path d="M53.9988 142.551C54.1681 138.201 54.108 133.845 53.8186 129.501C53.1737 120.531 51.8038 111.628 49.722 102.879C48.5773 97.956 47.1712 93.114 45.702 88.2765C45.657 88.128 45.4226 88.1685 45.4632 88.3215C50.0014 105.376 53.7239 122.972 53.467 140.702C53.3949 145.652 52.8181 150.534 52.3494 155.466C52.3494 155.597 52.5522 155.65 52.5837 155.515C53.5166 151.281 53.8231 146.862 53.9988 142.551Z" fill="#EBEBEB"/>
<path d="M45.4633 88.308C45.4633 88.308 38.5951 105.723 40.1319 109.8C41.6687 113.877 44.8413 114.75 44.8413 114.75C44.8413 114.75 40.6366 120.744 43.575 126.364C46.5133 131.985 53.039 131.719 53.4896 138.091C53.4761 138.123 53.8366 111.479 45.4633 88.308Z" fill="#EBEBEB"/>
<path d="M52.7281 127.12C52.7392 127.092 52.7392 127.059 52.7281 127.03C51.8267 115.141 49.5924 103.39 46.0672 91.998C46.0672 91.9665 45.9996 91.9755 46.0087 91.998C47.3697 97.098 48.5714 102.219 49.614 107.361C48.6906 106.488 47.5626 105.859 46.3331 105.534C46.3331 105.534 46.2971 105.561 46.3331 105.57C47.6247 106.043 48.786 106.814 49.7221 107.82C49.9204 108.832 50.1187 109.84 50.3035 110.853C48.7667 109.138 46.6396 108.288 44.5079 107.478C44.5031 107.48 44.499 107.484 44.4961 107.488C44.4932 107.492 44.4917 107.497 44.4917 107.503C44.4917 107.508 44.4932 107.513 44.4961 107.518C44.499 107.522 44.5031 107.525 44.5079 107.527C46.7297 108.427 48.938 109.588 50.4432 111.501C50.966 114.39 51.4257 117.289 51.8222 120.199C50.7126 119.039 49.2896 118.224 47.7257 117.855C47.6761 117.855 47.6491 117.913 47.6987 117.927C49.3052 118.399 50.7394 119.328 51.8268 120.6H51.8538C51.989 121.62 52.1182 122.644 52.2414 123.673C51.383 122.948 50.4138 122.365 49.3706 121.945C49.3436 121.945 49.3256 121.977 49.3706 121.986C50.4352 122.446 51.41 123.091 52.2504 123.889C52.2504 123.889 52.2729 123.889 52.2864 123.889C52.3991 124.866 52.5118 125.842 52.6109 126.819C51.0634 124.951 49.055 123.518 46.7838 122.661C46.7742 122.661 46.7651 122.665 46.7583 122.672C46.7515 122.678 46.7477 122.687 46.7477 122.697C46.7477 122.707 46.7515 122.716 46.7583 122.722C46.7651 122.729 46.7742 122.733 46.7838 122.733C49.0265 123.72 50.9965 125.235 52.5253 127.147C52.5421 127.168 52.5648 127.184 52.5905 127.192C52.6162 127.2 52.6437 127.2 52.6695 127.192C52.8182 128.691 52.9534 130.189 53.0616 131.692C53.0616 131.715 53.0976 131.715 53.0976 131.692C52.9805 130.183 52.8573 128.659 52.7281 127.12Z" fill="white"/>
<path d="M47.2074 103.82C45.9636 103.047 44.5426 102.604 43.0793 102.533C43.0721 102.533 43.0652 102.535 43.0602 102.54C43.0551 102.545 43.0522 102.552 43.0522 102.56C43.0522 102.567 43.0551 102.574 43.0602 102.579C43.0652 102.584 43.0721 102.586 43.0793 102.586C44.4941 102.854 45.867 103.308 47.1623 103.937C47.2164 103.95 47.257 103.856 47.2074 103.82Z" fill="white"/>
<path d="M48.041 122.256C47.085 121.708 46.0323 121.349 44.9404 121.198C44.9043 121.198 44.8998 121.248 44.9404 121.257C46.0066 121.471 47.038 121.831 48.0049 122.328C48.0455 122.35 48.0815 122.278 48.041 122.256Z" fill="white"/>
<path d="M72.0617 110.101C69.1562 112.107 66.4877 114.435 64.1074 117.041C61.6526 119.799 59.7592 123.009 58.5327 126.491C55.9224 133.744 54.5187 141.375 54.3775 149.081C54.29 153.348 54.6998 157.611 55.5988 161.784C55.6061 161.814 55.6248 161.841 55.651 161.858C55.6773 161.875 55.709 161.881 55.7397 161.875C55.7704 161.869 55.7977 161.852 55.8159 161.827C55.8342 161.801 55.842 161.77 55.8377 161.739C54.719 154.375 54.7616 146.882 55.9639 139.532C57.1446 132.332 58.9969 124.493 63.5847 118.638C66.0813 115.448 69.1955 112.941 72.2735 110.349C72.4358 110.205 72.2284 109.984 72.0617 110.101Z" fill="#EBEBEB"/>
<path d="M55.387 143.888C57.0408 141.216 58.9844 138.735 61.1825 136.49C64.6211 133.056 67.5144 130.617 67.9651 128.349C68.4157 126.081 64.522 124.407 64.522 124.407C64.522 124.407 69.2765 125.262 70.5789 123.269C71.8814 121.275 72.5078 109.728 72.5078 109.728C72.5078 109.728 63.855 115.897 59.8215 124.546C55.7881 133.196 55.387 143.888 55.387 143.888Z" fill="#EBEBEB"/>
<path d="M69.4026 120.559C68.8329 120.475 68.2553 120.455 67.6811 120.501C67.6135 120.501 67.618 120.618 67.6811 120.622C68.2489 120.622 68.8213 120.595 69.3891 120.622C69.3956 120.621 69.4015 120.617 69.4062 120.613C69.4108 120.608 69.414 120.602 69.4154 120.595C69.4168 120.589 69.4164 120.582 69.4141 120.576C69.4119 120.569 69.4079 120.564 69.4026 120.559Z" fill="white"/>
<path d="M63.188 131.76C62.2743 131.779 61.371 131.958 60.52 132.291C60.52 132.291 60.52 132.336 60.52 132.331C61.4214 132.12 62.2911 132.034 63.1835 131.881C63.1951 131.876 63.2051 131.868 63.2122 131.858C63.2194 131.847 63.2234 131.835 63.2239 131.822C63.2244 131.809 63.2213 131.797 63.2149 131.786C63.2086 131.775 63.1992 131.766 63.188 131.76Z" fill="white"/>
<path d="M61.3222 127.89C60.9428 127.887 60.564 127.92 60.191 127.989C60.1841 127.992 60.1781 127.996 60.1739 128.002C60.1697 128.008 60.1675 128.015 60.1675 128.023C60.1675 128.03 60.1697 128.037 60.1739 128.043C60.1781 128.049 60.1841 128.054 60.191 128.056C60.5687 128.078 60.9478 128.062 61.3222 128.007C61.3377 128.007 61.3526 128.001 61.3636 127.99C61.3746 127.979 61.3807 127.964 61.3807 127.948C61.3807 127.933 61.3746 127.918 61.3636 127.907C61.3526 127.896 61.3377 127.89 61.3222 127.89Z" fill="white"/>
<path d="M30.0188 122.351C32.8351 123.304 35.5339 124.573 38.0632 126.135C40.6876 127.8 42.9635 129.958 44.7646 132.489C48.5543 137.756 51.4558 143.607 53.3543 149.81C54.4132 153.244 55.0666 156.79 55.3012 160.376C55.2963 160.399 55.2835 160.42 55.2651 160.434C55.2466 160.449 55.2236 160.458 55.1998 160.458C55.1761 160.458 55.153 160.449 55.1346 160.434C55.1161 160.42 55.1034 160.399 55.0984 160.376C54.3029 154.158 52.5359 148.104 49.8617 142.434C47.2343 136.876 43.9219 130.964 38.8564 127.283C36.0983 125.28 32.9977 123.966 29.9062 122.58C29.7439 122.526 29.8566 122.297 30.0188 122.351Z" fill="#EBEBEB"/>
<path d="M51.3354 145.845C49.3775 144.066 47.23 142.507 44.9315 141.196C41.3532 139.212 38.4464 137.907 37.5586 136.174C36.6707 134.442 39.4333 132.192 39.4333 132.192C39.4333 132.192 35.7829 133.992 34.2687 132.664C32.7545 131.337 29.5728 122.157 29.5728 122.157C29.5728 122.157 38.0047 125.149 43.264 131.22C48.5233 137.29 51.3354 145.845 51.3354 145.845Z" fill="#EBEBEB"/>
<path d="M44.3366 137.394C43.5076 137.336 42.6752 137.439 41.885 137.695C41.885 137.695 41.885 137.736 41.885 137.732C42.6912 137.593 43.5057 137.509 44.3231 137.48C44.3817 137.48 44.3952 137.398 44.3366 137.394Z" fill="white"/>
<path d="M36.9817 127.764C36.6036 127.733 36.2229 127.754 35.8505 127.827C35.81 127.827 35.8235 127.899 35.8505 127.894C36.2246 127.854 36.5896 127.867 36.9592 127.858C36.9707 127.859 36.982 127.855 36.9911 127.848C37.0003 127.842 37.0067 127.832 37.0094 127.82C37.012 127.809 37.0107 127.798 37.0057 127.787C37.0006 127.777 36.9922 127.769 36.9817 127.764Z" fill="white"/>
<path d="M62.2101 171.981H43.1785L45.8915 152.131L46.5855 147.042H58.8031L59.4971 152.131L62.2101 171.981Z" fill="#DBDBDB"/>
<path d="M59.497 152.131H45.8914L46.5854 147.042H58.803L59.497 152.131Z" fill="#C7C7C7"/>
<path d="M60.5472 145.278H44.8369V149.589H60.5472V145.278Z" fill="#DBDBDB"/>
<path d="M31.0779 171.981L65.3331 171.873L99.5882 171.833L168.099 171.756L236.609 171.833L270.864 171.873L305.119 171.981L270.864 172.093L236.609 172.13L168.099 172.206L99.5882 172.13L65.3331 172.089L31.0779 171.981Z" fill="#3F3F3F"/>
<path d="M169 205.519C240.369 205.519 298.224 199.189 298.224 191.38C298.224 183.572 240.369 177.242 169 177.242C97.6315 177.242 39.7759 183.572 39.7759 191.38C39.7759 199.189 97.6315 205.519 169 205.519Z" fill="#EBEBEB"/>
<path d="M138.918 189.04C137.868 189.396 107.759 189.49 106.605 188.779C106.155 188.509 105.898 184.131 105.704 178.83C105.663 177.687 105.632 176.503 105.605 175.306L103.203 159.268L123.334 159.138L125.231 175.18L125.155 178.708C125.155 178.708 136.701 183.816 137.881 184.743C139.062 185.67 139.968 188.685 138.918 189.04Z" fill="#EB9481"/>
<path d="M138.918 189.04C137.868 189.396 107.759 189.49 106.605 188.779C106.073 188.446 105.785 182.052 105.623 175.306L125.209 175.18L125.132 178.708C125.132 178.708 136.678 183.816 137.859 184.743C139.039 185.67 139.968 188.685 138.918 189.04Z" fill="white"/>
<path d="M138.918 189.04C137.868 189.396 107.759 189.49 106.605 188.779C106.155 188.509 105.898 184.131 105.704 178.83L125.114 178.708C125.114 178.708 136.66 183.816 137.841 184.743C139.022 185.67 139.968 188.685 138.918 189.04Z" fill="#A6A6A6"/>
<path d="M138.481 187.839C133.433 187.731 113.063 187.78 108.065 188.059C108.025 188.059 108.025 188.086 108.065 188.091C113.068 188.302 133.438 188.091 138.481 187.92C138.589 187.915 138.589 187.839 138.481 187.839Z" fill="#3F3F3F"/>
<path d="M135.917 183.667C135.355 183.655 134.798 183.759 134.279 183.973C133.76 184.186 133.291 184.505 132.902 184.909C132.192 185.631 131.792 186.599 131.784 187.61C131.784 187.641 131.838 187.641 131.843 187.61C132.01 186.614 132.496 185.699 133.227 185.002C133.958 184.304 134.895 183.861 135.899 183.739C135.908 183.742 135.918 183.74 135.927 183.735C135.935 183.73 135.941 183.722 135.944 183.712C135.946 183.703 135.944 183.693 135.939 183.684C135.934 183.676 135.926 183.67 135.917 183.667Z" fill="#3F3F3F"/>
<path d="M127.088 179.203C125.069 179.181 122.73 179.901 121.477 181.557C121.432 181.62 121.522 181.687 121.581 181.656C123.345 180.726 125.203 179.987 127.124 179.451C127.154 179.443 127.179 179.424 127.196 179.398C127.213 179.373 127.22 179.342 127.215 179.311C127.211 179.281 127.196 179.253 127.172 179.233C127.149 179.213 127.119 179.203 127.088 179.203Z" fill="#3F3F3F"/>
<path d="M128.656 179.802C126.633 179.802 124.294 180.504 123.045 182.155C122.996 182.223 123.086 182.29 123.149 182.259C124.91 181.326 126.767 180.585 128.688 180.049C128.717 180.041 128.742 180.023 128.759 179.998C128.776 179.973 128.783 179.942 128.779 179.912C128.776 179.882 128.761 179.854 128.738 179.834C128.716 179.814 128.687 179.802 128.656 179.802Z" fill="#3F3F3F"/>
<path d="M130.216 180.405C128.197 180.405 125.858 181.103 124.605 182.758C124.56 182.821 124.65 182.889 124.708 182.857C126.472 181.928 128.331 181.189 130.252 180.653C130.281 180.644 130.307 180.626 130.324 180.6C130.341 180.574 130.348 180.543 130.343 180.513C130.339 180.482 130.323 180.455 130.3 180.435C130.276 180.415 130.246 180.404 130.216 180.405Z" fill="#3F3F3F"/>
<path d="M131.779 181.008C129.756 180.986 127.417 181.706 126.169 183.361C126.119 183.424 126.214 183.492 126.272 183.46C128.036 182.53 129.894 181.791 131.816 181.256C131.845 181.247 131.871 181.229 131.888 181.203C131.905 181.177 131.912 181.146 131.907 181.116C131.903 181.085 131.887 181.058 131.864 181.038C131.84 181.018 131.81 181.007 131.779 181.008Z" fill="#3F3F3F"/>
<path d="M109.336 183.267C107.083 183.267 107.083 186.799 109.336 186.786C111.59 186.772 111.608 183.253 109.336 183.267Z" fill="#3F3F3F"/>
<path d="M129.256 173.812C128.233 172.966 126.944 173.812 126.317 174.681C125.275 176.216 124.653 177.997 124.515 179.847C124.515 179.887 124.546 179.905 124.578 179.905C124.586 179.944 124.603 179.979 124.627 180.009C124.652 180.039 124.684 180.063 124.719 180.079C124.755 180.094 124.794 180.101 124.833 180.098C124.872 180.095 124.91 180.083 124.943 180.063C126.376 179.068 128.034 178.177 129.12 176.769C129.738 175.95 130.243 174.6 129.256 173.812ZM126.795 178.105C126.101 178.614 125.384 179.086 124.708 179.622C125.069 178.614 125.38 177.597 125.84 176.625C126.052 176.159 126.296 175.708 126.57 175.275C127.02 174.604 128.985 172.912 129.193 175.104C129.31 176.305 127.62 177.502 126.795 178.105Z" fill="#3F3F3F"/>
<path d="M119.485 180.612C121.243 180.873 123.059 180.369 124.785 180.095C124.822 180.085 124.857 180.066 124.886 180.041C124.915 180.015 124.938 179.983 124.952 179.947C124.967 179.912 124.973 179.873 124.969 179.834C124.966 179.796 124.954 179.758 124.934 179.726C124.94 179.72 124.946 179.714 124.949 179.707C124.953 179.699 124.955 179.691 124.955 179.683C124.955 179.675 124.953 179.666 124.949 179.659C124.946 179.652 124.94 179.645 124.934 179.64C123.547 178.405 121.859 177.556 120.039 177.178C118.976 176.976 117.471 177.268 117.335 178.587C117.173 179.829 118.458 180.45 119.485 180.612ZM118.259 179.469C116.907 177.741 119.49 177.592 120.265 177.772C120.768 177.898 121.262 178.057 121.743 178.249C122.729 178.658 123.693 179.116 124.632 179.622C123.776 179.708 122.933 179.861 122.081 179.978C121.063 180.113 119.016 180.419 118.259 179.469Z" fill="#3F3F3F"/>
<path d="M73.6028 85.14C73.6028 85.14 96.9789 124.848 97.6053 127.638C98.5652 131.922 103.653 174.226 103.653 174.226L127.989 173.776C127.989 173.776 123.798 136.476 119.828 124.186C116.97 115.335 96.3389 85.977 96.3389 85.977L73.6028 85.14Z" fill="#37474F"/>
<path d="M125.777 170.068C122.284 170.041 109.904 169.902 105.253 170.334C105.217 170.334 105.222 170.397 105.253 170.401C106.853 170.631 122.279 170.275 125.772 170.163C125.779 170.166 125.787 170.166 125.795 170.166C125.803 170.165 125.81 170.162 125.816 170.158C125.823 170.153 125.828 170.148 125.832 170.141C125.836 170.134 125.838 170.127 125.838 170.119C125.839 170.111 125.837 170.103 125.834 170.096C125.831 170.089 125.826 170.083 125.82 170.078C125.814 170.073 125.807 170.07 125.799 170.068C125.792 170.066 125.784 170.067 125.777 170.068Z" fill="#3F3F3F"/>
<path d="M77.5911 88.785C79.1234 91.1835 80.7458 93.5325 82.3051 95.913C83.8644 98.2935 85.4327 100.674 86.9785 103.05C90.0611 107.85 93.0655 112.681 95.9918 117.544C97.42 119.799 98.6417 122.177 99.6422 124.65C100.555 127.124 101.242 129.675 101.693 132.273C102.17 134.878 102.486 137.511 102.779 140.143C103.079 142.942 103.393 145.743 103.721 148.545C104.361 154.278 105.002 160.011 105.645 165.744C105.722 166.446 105.798 167.148 105.87 167.854C105.87 167.958 105.695 167.976 105.681 167.854C104.965 162.162 104.37 156.447 103.721 150.754C103.396 147.913 103.073 145.074 102.752 142.236C102.45 139.594 102.161 136.948 101.751 134.325C101.375 131.735 100.803 129.178 100.039 126.675C99.1973 124.083 98.0697 121.593 96.6768 119.25C93.8602 114.394 90.8768 109.624 87.8934 104.85C84.9099 100.075 81.8454 95.2605 78.6998 90.5445C78.3122 89.964 77.9201 89.3835 77.5145 88.812C77.483 88.7805 77.5641 88.74 77.5911 88.785Z" fill="#3F3F3F"/>
<path d="M81.2641 191.38C80.1555 191.313 51.5201 179.73 50.727 178.632C50.6916 178.567 50.676 178.494 50.6819 178.42C50.6819 177.435 52.6693 173.997 54.3278 169.479C54.4314 169.191 55.1705 167.85 56.1935 166.045C59.0372 161.1 63.9946 152.581 63.9946 152.581L82.7108 160.006L73.7515 173.394L72.3589 176.634C72.3589 176.634 81.1424 185.701 81.8815 186.984C82.6206 188.266 82.3683 191.443 81.2641 191.38Z" fill="#EB9481"/>
<path d="M81.2641 191.38C80.1555 191.313 51.5201 179.73 50.727 178.632C50.6916 178.567 50.676 178.494 50.6819 178.42C50.6819 177.435 52.6693 173.997 54.3278 169.479C54.4314 169.191 55.1705 167.85 56.1935 166.045L73.7695 173.394L72.377 176.634C72.377 176.634 81.1605 185.701 81.8996 186.984C82.6386 188.266 82.3683 191.443 81.2641 191.38Z" fill="white"/>
<path d="M81.2642 191.38C80.1555 191.313 51.5202 179.73 50.727 178.632C50.4205 178.213 51.7004 174.312 54.3323 169.479L72.359 176.638C72.359 176.638 81.1425 185.697 81.8861 186.988C82.6297 188.28 82.3683 191.443 81.2642 191.38Z" fill="#A6A6A6"/>
<path d="M81.3092 190.102C76.6718 188.113 57.7709 180.527 53.0344 178.916C52.9938 178.916 52.9848 178.916 53.0344 178.943C57.5906 181.013 76.5502 188.446 81.2912 190.192C81.3813 190.215 81.4083 190.143 81.3092 190.102Z" fill="#3F3F3F"/>
<path d="M80.4981 185.274C79.9838 185.048 79.4283 184.932 78.8667 184.932C78.305 184.932 77.7495 185.048 77.2352 185.274C76.3107 185.678 75.5778 186.423 75.1892 187.353C75.1892 187.38 75.2298 187.403 75.2433 187.376C75.7746 186.513 76.5716 185.845 77.5149 185.473C78.4582 185.1 79.497 185.043 80.4755 185.31C80.4831 185.308 80.4896 185.303 80.4938 185.296C80.498 185.29 80.4995 185.282 80.4981 185.274Z" fill="#3F3F3F"/>
<path d="M73.9948 177.831C72.1336 177.052 69.6909 176.845 67.9108 177.912C67.8432 177.952 67.9108 178.047 67.9694 178.042C69.9538 177.841 71.954 177.852 73.9362 178.074C73.9667 178.077 73.9974 178.069 74.0225 178.052C74.0476 178.034 74.0654 178.008 74.0726 177.978C74.0797 177.948 74.0758 177.917 74.0615 177.89C74.0472 177.863 74.0235 177.842 73.9948 177.831Z" fill="#3F3F3F"/>
<path d="M75.2162 178.974C73.355 178.196 70.9124 177.989 69.1322 179.055C69.0646 179.095 69.1322 179.19 69.1908 179.186C71.1751 178.982 73.1756 178.993 75.1577 179.217C75.1882 179.22 75.2188 179.212 75.2439 179.195C75.269 179.177 75.2868 179.151 75.294 179.121C75.3012 179.091 75.2972 179.06 75.2829 179.033C75.2686 179.006 75.2449 178.985 75.2162 178.974Z" fill="#3F3F3F"/>
<path d="M76.442 180.117C74.5762 179.339 72.1336 179.132 70.358 180.198C70.2859 180.238 70.358 180.333 70.4121 180.328C72.3964 180.125 74.3968 180.136 76.3789 180.36C76.41 180.365 76.442 180.359 76.4684 180.341C76.4949 180.324 76.514 180.298 76.5219 180.267C76.5298 180.237 76.526 180.204 76.5112 180.177C76.4964 180.149 76.4717 180.128 76.442 180.117Z" fill="#3F3F3F"/>
<path d="M77.6634 181.26C75.7977 180.482 73.3595 180.275 71.5794 181.337C71.5073 181.382 71.5794 181.476 71.6335 181.471C73.6178 181.268 75.6183 181.279 77.6003 181.503C77.6314 181.508 77.6634 181.502 77.6899 181.484C77.7163 181.467 77.7354 181.441 77.7433 181.41C77.7512 181.38 77.7474 181.347 77.7326 181.32C77.7178 181.292 77.6932 181.271 77.6634 181.26Z" fill="#3F3F3F"/>
<path d="M56.0089 174.946C53.9043 174.11 52.5973 177.381 54.7109 178.218C56.8246 179.055 58.136 175.783 56.0089 174.946Z" fill="#3F3F3F"/>
<path d="M78.0284 173.646C77.393 172.481 75.8923 172.769 74.9774 173.349C73.4363 174.38 72.1931 175.797 71.3721 177.457C71.3685 177.465 71.3665 177.473 71.3665 177.481C71.3664 177.489 71.3681 177.497 71.3716 177.504C71.3751 177.512 71.3802 177.518 71.3865 177.523C71.3928 177.529 71.4002 177.532 71.4081 177.534C71.4081 177.682 71.5073 177.858 71.683 177.822C73.3911 177.43 75.2613 177.228 76.7936 176.328C77.6724 175.806 78.6278 174.749 78.0284 173.646ZM74.1301 176.702C73.2964 176.913 72.4582 177.084 71.6334 177.327C72.3156 176.506 73.0391 175.721 73.8012 174.973C74.1763 174.617 74.5753 174.286 74.9954 173.984C75.6489 173.534 78.1185 172.701 77.4876 174.812C77.1406 175.977 75.1261 176.45 74.1301 176.702Z" fill="#3F3F3F"/>
<path d="M66.4145 176.287C67.9468 177.187 69.8171 177.399 71.5206 177.795C71.6963 177.835 71.8135 177.66 71.8 177.507C71.8085 177.506 71.8165 177.503 71.8235 177.498C71.8304 177.493 71.8359 177.487 71.8395 177.479C71.8432 177.471 71.8448 177.463 71.8441 177.454C71.8435 177.446 71.8407 177.438 71.8361 177.43C71.0163 175.766 69.773 174.346 68.2307 173.313C67.3294 172.728 65.8197 172.435 65.1797 173.596C64.5398 174.757 65.5177 175.761 66.4145 176.287ZM65.7115 174.766C65.0851 172.656 67.5502 173.493 68.2037 173.947C68.6233 174.251 69.0209 174.583 69.3934 174.942C70.154 175.691 70.876 176.478 71.5566 177.3C70.7319 177.057 69.8937 176.881 69.06 176.67C68.0505 176.4 66.054 175.95 65.7115 174.766Z" fill="#3F3F3F"/>
<path d="M75.2071 172.647L54.2556 164.2C54.2556 164.2 80.232 126.063 80.4213 123.223C80.5926 120.712 69.1817 98.8335 68.7355 92.457C68.2488 85.572 71.5657 80.2485 75.2161 76.941L96.8256 86.1165C96.8256 86.1165 94.5452 89.757 90.9669 91.7865C90.9669 91.7865 102.049 117.076 101.418 124.852C100.787 132.628 75.2071 172.647 75.2071 172.647Z" fill="#37474F"/>
<path d="M76.1355 168.669C73.107 167.369 73.9948 167.697 70.9483 166.419C69.4611 165.798 59.6816 161.735 58.1764 161.397C58.1449 161.397 58.1223 161.442 58.1539 161.46C59.4563 162.256 69.3169 166.149 70.8176 166.743C73.8866 167.949 73.0169 167.571 76.0994 168.741C76.104 168.747 76.1101 168.752 76.1171 168.755C76.1242 168.758 76.1319 168.76 76.1395 168.759C76.1472 168.758 76.1545 168.756 76.1609 168.751C76.1672 168.747 76.1723 168.741 76.1758 168.734C76.1792 168.727 76.1808 168.72 76.1805 168.712C76.1801 168.704 76.1778 168.697 76.1738 168.69C76.1698 168.684 76.1641 168.678 76.1574 168.675C76.1507 168.671 76.1432 168.669 76.1355 168.669Z" fill="#3F3F3F"/>
<path d="M94.5092 91.323C92.2594 91.8466 90.0582 92.5602 87.9294 93.456C87.9208 93.4589 87.9129 93.4636 87.9061 93.4696C87.8993 93.4756 87.8938 93.4829 87.8898 93.491C87.8858 93.4992 87.8835 93.508 87.8829 93.5171C87.8824 93.5261 87.8836 93.5352 87.8866 93.5437C87.8896 93.5523 87.8942 93.5602 87.9002 93.567C87.9062 93.5738 87.9135 93.5793 87.9217 93.5833C87.9298 93.5873 87.9387 93.5896 87.9478 93.5901C87.9568 93.5907 87.9659 93.5895 87.9745 93.5865C90.1827 92.943 92.4271 92.34 94.5993 91.5795C94.766 91.521 94.6804 91.287 94.5092 91.323Z" fill="#3F3F3F"/>
<path d="M91.9359 90.45C91.7259 90.8229 91.5407 91.2093 91.3816 91.6065C91.226 91.908 91.1297 92.2364 91.0977 92.574C91.0977 92.6415 91.1878 92.655 91.2283 92.6145C91.4544 92.3444 91.6369 92.0408 91.7691 91.7145C91.9539 91.359 92.1432 91.008 92.319 90.6435C92.4406 90.378 92.0756 90.207 91.9359 90.45Z" fill="#3F3F3F"/>
<path d="M92.2064 88.407C92.3416 88.074 92.4723 87.7455 92.612 87.4125C92.7517 87.0795 92.9275 86.7375 93.0627 86.3865C93.0627 86.3325 93.1708 86.3865 93.1483 86.427C93.0131 86.76 92.9275 87.111 92.8238 87.453C92.7202 87.795 92.603 88.137 92.4903 88.479C92.2785 89.1135 92.0397 89.7435 91.7467 90.36C92.1014 90.3777 92.4555 90.3162 92.7833 90.18C93.1181 89.966 93.3755 89.6506 93.5179 89.28C93.7071 88.911 93.8829 88.533 94.0767 88.164C94.3152 87.7651 94.5159 87.3447 94.6761 86.9085C94.6761 86.8545 94.7842 86.9085 94.7617 86.949C94.4678 87.8713 94.0829 88.7622 93.6125 89.6085C93.4097 89.937 93.252 90.2835 92.8824 90.4095C92.4824 90.5212 92.0638 90.5503 91.6521 90.495C91.598 90.495 91.5349 90.495 91.5529 90.414C91.7375 89.7346 91.9556 89.0648 92.2064 88.407Z" fill="#3F3F3F"/>
<path d="M91.287 92.61C92.0577 94.2345 92.7337 95.8545 93.4502 97.4745C94.1668 99.0945 94.8022 100.66 95.4467 102.271C96.7356 105.52 97.8893 108.832 98.9033 112.171C99.4035 113.827 99.8677 115.497 100.282 117.18C100.739 118.858 101.073 120.566 101.283 122.292C101.464 124.015 101.311 125.757 100.832 127.422C100.335 129.068 99.6973 130.668 98.9258 132.206C98.4526 133.178 98.2949 133.047 98.5202 132.557C99.1647 131.162 100.855 126.936 100.733 123.385C100.634 121.686 100.372 119.999 99.9488 118.35C99.5552 116.649 99.1121 114.961 98.6194 113.287C97.6594 109.984 96.5193 106.749 95.3475 103.518C94.6896 101.718 93.9955 99.918 93.3195 98.118C92.6435 96.318 91.9675 94.662 91.2104 92.673C91.1879 92.592 91.2645 92.5605 91.287 92.61Z" fill="#3F3F3F"/>
<path d="M75.383 87.2415C75.757 87.102 76.2843 87.3315 76.6628 87.3945C77.1531 87.4776 77.6485 87.5272 78.1455 87.543C78.6373 87.5603 79.1297 87.5437 79.6192 87.4935C80.1122 87.4808 80.5953 87.3529 81.0298 87.12C81.7427 86.6014 82.3538 85.9562 82.8325 85.2165C83.4029 84.4606 83.8739 83.6349 84.2341 82.7595C84.2341 82.7055 84.3287 82.7595 84.3107 82.7955C84.1529 83.295 84.0358 83.799 83.86 84.2895C83.6657 84.7503 83.4336 85.1943 83.166 85.617C82.7321 86.4674 82.0904 87.1949 81.3002 87.732C80.4304 88.227 79.3128 88.182 78.3438 88.1415C77.7819 88.1088 77.2231 88.0351 76.6719 87.921C76.2753 87.8355 75.6083 87.7725 75.3559 87.426C75.344 87.4127 75.3352 87.397 75.3301 87.38C75.325 87.363 75.3237 87.345 75.3262 87.3274C75.3288 87.3098 75.3352 87.293 75.345 87.2782C75.3548 87.2633 75.3678 87.2508 75.383 87.2415Z" fill="#3F3F3F"/>
<path d="M60.236 160.2C63.6791 154.992 67.0591 149.742 70.376 144.45C73.6929 139.158 76.9648 133.825 80.1915 128.452C80.9622 127.17 81.85 125.892 82.3457 124.47C82.8865 122.926 82.5801 121.428 82.0933 119.916C81.1743 117.158 80.1 114.453 78.8756 111.816C77.6678 109.156 76.3654 106.542 75.0855 103.918C73.8056 101.295 72.4671 98.703 71.4801 95.967C70.5788 93.3525 70.2138 90.6435 70.9168 87.9345C71.6199 85.2255 73.1341 82.8315 74.7159 80.577C75.1305 79.983 75.5587 79.3935 75.9778 78.777C76.0093 78.732 76.077 78.777 76.0454 78.831C74.3013 81.18 72.6023 83.6685 71.5793 86.427C71.0564 87.7867 70.764 89.2238 70.714 90.6795C70.7055 92.157 70.9353 93.6263 71.3945 95.031C72.2418 97.767 73.5803 100.354 74.8286 102.928C76.0769 105.502 77.4109 108.166 78.6412 110.817C79.9105 113.485 81.0387 116.217 82.0212 119.002C82.4404 120.24 82.9226 121.536 82.8865 122.863C82.855 124.317 82.161 125.626 81.4399 126.85C78.2852 132.183 75.0539 137.452 71.7641 142.69C68.4742 147.928 65.0897 153.166 61.6646 158.35L60.3667 160.308C60.2991 160.389 60.1819 160.294 60.236 160.2Z" fill="#3F3F3F"/>
<path d="M98.0243 61.8615C99.9757 66.1365 109.832 72.027 114.447 72.6615C117.764 73.1115 127.849 73.2735 131.306 72.747C135.362 72.126 132.261 61.2135 129.868 61.497C123.289 62.262 117.7 63.117 115.943 63.117C113.798 63.117 102.193 59.4 100.796 58.8735C97.3709 57.6 96.9202 59.436 98.0243 61.8615Z" fill="#EB9481"/>
<path d="M98.0876 63C100.557 66.6495 108.764 72.6165 108.764 72.6165L109.904 70.0965L113.676 61.7625C113.676 61.7625 106.137 59.4 101.175 58.32C100.591 58.1873 99.9969 58.103 99.3991 58.068C96.2309 57.897 95.956 59.85 98.0876 63Z" fill="#D2E4FF"/>
<path d="M98.0876 63C100.557 66.6495 108.764 72.6165 108.764 72.6165L109.904 70.0965C106.844 66.546 102.117 61.1685 99.3991 58.077C96.2309 57.897 95.956 59.85 98.0876 63Z" fill="#3F3F3F"/>
<path d="M107.286 70.9245C107.912 69.39 110.697 63.2115 111.391 61.9245C111.436 61.8345 111.508 61.8435 111.468 61.9245C110.26 64.997 108.885 68.0015 107.349 70.9245C107.331 70.9785 107.258 70.9605 107.286 70.9245Z" fill="#3F3F3F"/>
<path d="M128.661 61.6095C132.663 61.0875 137.615 60.192 141.811 61.9695C142.282 62.154 142.678 62.4917 142.933 62.928C144.826 63.693 145.033 64.8135 145.033 64.8135C146.579 66.0645 146.633 67.2435 146.633 67.2435C146.633 67.2435 148.851 68.1435 148.513 69.5925C148.143 71.1945 145.105 69.5925 142.897 69.723C137.827 70.038 130.729 71.8965 129.265 72.1305L128.661 61.6095Z" fill="#EB9481"/>
<path d="M137.354 66.3255C138.837 66.2242 140.324 66.2242 141.807 66.3255C143.421 66.5277 145.018 66.8511 146.584 67.293C146.594 67.2965 146.605 67.296 146.615 67.2913C146.625 67.2867 146.632 67.2784 146.636 67.2682C146.639 67.2581 146.639 67.2469 146.634 67.2372C146.629 67.2275 146.621 67.22 146.611 67.2165C143.669 66.0641 140.467 65.7403 137.354 66.2805C137.282 66.2715 137.282 66.33 137.354 66.3255Z" fill="#3F3F3F"/>
<path d="M136.412 61.65C138.886 61.776 140.432 62.172 142.92 62.919V62.892C140.18 61.749 139.058 61.641 136.399 61.542C136.313 61.578 136.318 61.65 136.412 61.65Z" fill="#3F3F3F"/>
<path d="M136.813 70.488C136.169 70.7895 136.327 71.127 137.557 71.4105C138.787 71.694 143.902 71.7795 143.722 73.5615C143.542 75.3435 136.327 75.1185 134.312 74.4885C132.298 73.8585 129.265 72.1305 129.265 72.1305C130.693 71.892 134.046 70.9875 136.813 70.488Z" fill="#EB9481"/>
<path d="M103.383 68.6745C103.351 69.444 103.279 70.227 103.171 71.0055C103.171 70.974 103.171 70.947 103.203 70.92C103.351 70.515 103.5 70.101 103.68 69.7095C103.68 69.7095 103.725 69.7095 103.721 69.7095C103.634 70.1385 103.504 70.5576 103.333 70.9605C103.252 71.154 103.176 71.343 103.09 71.532C103.036 71.8785 102.973 72.2205 102.905 72.5625C102.77 73.206 102.162 75.942 102.004 76.4055C101.977 76.5 101.86 76.4775 101.869 76.3695C101.9 75.8655 102.409 73.017 102.513 72.369C102.714 71.1178 102.984 69.8785 103.32 68.6565C103.342 68.634 103.387 68.652 103.383 68.6745Z" fill="#3F3F3F"/>
<path d="M98.6958 89.136C97.4925 89.7525 95.9422 90.711 88.9569 89.3385C88.5062 89.2485 88.0826 89.1405 87.641 89.01C81.0928 87.048 73.2196 79.3575 72.7915 78.813C72.7915 78.813 83.1974 61.9695 96.5056 56.673C98.1505 56.0205 100.873 57.2805 102.364 58.851C102.901 59.4135 104.068 63.549 103.622 66.897C103.175 70.245 99.8946 88.5195 98.6958 89.136Z" fill="#D2E4FF"/>
<path d="M97.7585 66.744C97.8088 67.4558 97.709 68.1701 97.4656 68.841C97.4084 68.129 97.5084 67.4132 97.7585 66.744Z" fill="white"/>
<path d="M93.2203 78.2145C93.249 78.5687 93.2369 78.925 93.1843 79.2765C93.1409 79.6306 93.0546 79.9781 92.9274 80.3115C92.8964 79.9558 92.9085 79.5977 92.9635 79.245C93.0095 78.8928 93.0957 78.5471 93.2203 78.2145Z" fill="white"/>
<path d="M85.5095 69.543C85.5603 70.2562 85.4605 70.9722 85.2166 71.6445C85.1599 70.931 85.2599 70.2138 85.5095 69.543Z" fill="white"/>
<path d="M100.728 77.6295C100.757 77.9852 100.745 78.343 100.692 78.696C100.649 79.0501 100.563 79.3976 100.435 79.731C100.404 79.3753 100.417 79.0172 100.472 78.6645C100.517 78.3108 100.603 77.9635 100.728 77.6295Z" fill="white"/>
<path d="M90.8271 68.058C91.1817 68.0279 91.5386 68.0384 91.8907 68.0895C92.2455 68.1344 92.5936 68.222 92.9273 68.3505C92.2144 68.4016 91.4988 68.3019 90.8271 68.058Z" fill="white"/>
<path d="M82.0752 76.3425C82.788 76.2923 83.5034 76.392 84.1753 76.635C83.4623 76.692 82.7454 76.5922 82.0752 76.3425Z" fill="white"/>
<path d="M92.3865 85.311C93.0993 85.2599 93.815 85.3595 94.4866 85.6035C93.7736 85.6597 93.0569 85.5598 92.3865 85.311Z" fill="white"/>
<path d="M79.3757 82.053C80.0886 82.0028 80.804 82.1024 81.4758 82.3455C80.7628 82.4017 80.0461 82.3018 79.3757 82.053Z" fill="white"/>
<path d="M97.6909 58.68C98.4037 58.6298 99.1192 58.7294 99.791 58.9725C99.0782 59.0227 98.3628 58.923 97.6909 58.68Z" fill="white"/>
<path d="M95.1448 61.551C94.9169 61.8245 94.6566 62.0693 94.3696 62.28C94.0904 62.4956 93.7881 62.6797 93.4683 62.829C93.6946 62.5573 93.9517 62.3126 94.2344 62.1C94.5163 61.8835 94.8217 61.6994 95.1448 61.551Z" fill="white"/>
<path d="M81.2686 69.7095C81.038 69.9806 80.7763 70.2237 80.489 70.434C80.2126 70.6537 79.9098 70.8381 79.5876 70.983C79.8195 70.713 80.081 70.47 80.3673 70.2585C80.6444 70.0397 80.947 69.8554 81.2686 69.7095Z" fill="white"/>
<path d="M98.5968 73.3905C98.3662 73.663 98.1046 73.9076 97.8171 74.1195C97.54 74.3382 97.2374 74.5226 96.9158 74.6685C97.1463 74.396 97.408 74.1513 97.6954 73.9395C97.974 73.7229 98.2764 73.5387 98.5968 73.3905Z" fill="white"/>
<path d="M87.3751 80.4465C87.1445 80.719 86.8829 80.9637 86.5954 81.1755C86.3179 81.3936 86.0153 81.5779 85.6941 81.7245C85.9246 81.452 86.1863 81.2073 86.4737 80.9955C86.7523 80.7789 87.0547 80.5947 87.3751 80.4465Z" fill="white"/>
<path d="M102.896 63.7515C102.666 64.024 102.404 64.2687 102.116 64.4805C101.837 64.6961 101.535 64.8802 101.215 65.0295C101.446 64.757 101.707 64.5123 101.995 64.3005C102.272 64.0824 102.575 63.8981 102.896 63.7515Z" fill="white"/>
<path d="M102.662 71.928C102.389 71.6978 102.144 71.4365 101.932 71.1495C101.712 70.873 101.528 70.5707 101.382 70.2495C101.656 70.477 101.901 70.7369 102.112 71.0235C102.327 71.3044 102.512 71.6076 102.662 71.928Z" fill="white"/>
<path d="M77.6498 77.562C77.3768 77.3318 77.1318 77.0705 76.9197 76.7835C76.7028 76.5053 76.5183 76.2034 76.3699 75.8835C76.6428 76.1137 76.8878 76.375 77.0999 76.662C77.3184 76.9391 77.503 77.2412 77.6498 77.562Z" fill="white"/>
<path d="M99.6197 84.2625C99.3458 84.035 99.1007 83.7751 98.8896 83.4885C98.6737 83.2097 98.4893 82.9078 98.3398 82.5885C98.6128 82.8187 98.8578 83.08 99.0699 83.367C99.2874 83.6431 99.4719 83.9437 99.6197 84.2625Z" fill="white"/>
<path d="M88.61 65.16C88.3371 64.9314 88.0921 64.6716 87.8799 64.386C87.6649 64.1065 87.4805 63.8048 87.3301 63.486C87.604 63.7135 87.8491 63.9734 88.0602 64.26C88.2752 64.5395 88.4595 64.8412 88.61 65.16Z" fill="white"/>
<path d="M88.8038 88.0785C88.5309 87.8483 88.2859 87.587 88.0737 87.3C87.8575 87.0213 87.6731 86.7195 87.5239 86.4C87.7978 86.6275 88.043 86.8874 88.254 87.174C88.4709 87.4538 88.6553 87.7572 88.8038 88.0785Z" fill="white"/>
<path d="M90.6741 74.5605C90.4037 74.329 90.1603 74.0679 89.9485 73.782C89.7285 73.506 89.5438 73.2036 89.3987 72.882C89.6702 73.1123 89.9137 73.3736 90.1243 73.6605C90.3433 73.9372 90.528 74.2394 90.6741 74.5605Z" fill="white"/>
<path d="M99.9261 63.3375C98.2271 63.0225 96.6318 59.517 96.429 57.159C96.429 56.997 97.2221 55.7145 98.128 54.108C98.6778 53.1315 99.2591 52.029 99.7233 50.985C99.818 50.7735 100.372 51.489 100.372 51.489L101.58 52.389L105.568 55.4445C104.619 56.5825 103.812 57.8323 103.166 59.166C103.103 59.3105 103.054 59.4613 103.022 59.616C103.02 59.6415 103.02 59.667 103.022 59.6925C102.774 60.5835 101.562 63.639 99.9261 63.3375Z" fill="#EB9481"/>
<path d="M103.022 59.6385C103.02 59.664 103.02 59.6895 103.022 59.715C102.785 59.6457 102.555 59.5569 102.333 59.4495C97.9657 57.4065 99.8901 51.5655 99.8901 51.5655L101.603 52.4115L105.591 55.467C104.641 56.605 103.835 57.8548 103.189 59.1885C103.117 59.3321 103.062 59.483 103.022 59.6385Z" fill="#3F3F3F"/>
<path d="M110.152 43.011C110.152 43.011 112.148 44.2755 112.157 46.5255C112.166 48.7755 111.256 50.976 111.067 51.057C110.877 51.138 110.152 43.011 110.152 43.011Z" fill="#3F3F3F"/>
<path d="M100.246 44.181C99.0475 46.5435 99.1106 53.991 100.607 55.908C102.779 58.689 106.961 59.6475 109.489 56.898C111.937 54.234 111.684 44.532 109.94 42.723C107.403 40.05 102.022 40.6845 100.246 44.181Z" fill="#EB9481"/>
<path d="M106.61 50.1435C106.61 50.1435 106.569 50.1705 106.574 50.1885C106.601 50.697 106.546 51.282 106.091 51.462C106.091 51.462 106.091 51.4935 106.091 51.489C106.655 51.399 106.718 50.6205 106.61 50.1435Z" fill="#3F3F3F"/>
<path d="M106.146 49.626C105.325 49.581 105.298 51.219 106.06 51.2595C106.822 51.3 106.831 49.662 106.146 49.626Z" fill="#3F3F3F"/>
<path d="M109.39 50.1255C109.39 50.1255 109.431 50.1255 109.431 50.1705C109.404 50.679 109.462 51.264 109.922 51.4395C109.922 51.4395 109.922 51.471 109.922 51.4665C109.354 51.381 109.286 50.6025 109.39 50.1255Z" fill="#3F3F3F"/>
<path d="M109.854 49.6035C110.67 49.554 110.711 51.192 109.953 51.237C109.196 51.282 109.169 49.644 109.854 49.6035Z" fill="#3F3F3F"/>
<path d="M105.632 48.3795C105.847 48.3183 106.059 48.2462 106.267 48.1635C106.504 48.1207 106.719 48.0004 106.88 47.8215C106.919 47.756 106.935 47.6795 106.926 47.6039C106.917 47.5282 106.884 47.4576 106.83 47.403C106.708 47.3104 106.564 47.252 106.412 47.2338C106.26 47.2156 106.105 47.2383 105.965 47.2995C105.661 47.3808 105.398 47.5715 105.226 47.835C105.192 47.8977 105.176 47.9689 105.181 48.0401C105.186 48.1113 105.211 48.1797 105.254 48.237C105.297 48.2943 105.355 48.3382 105.422 48.3634C105.489 48.3887 105.562 48.3943 105.632 48.3795Z" fill="#3F3F3F"/>
<path d="M110.413 49.104C110.194 49.055 109.977 48.995 109.764 48.924C109.527 48.8926 109.306 48.7834 109.138 48.6135C109.094 48.5509 109.073 48.4755 109.078 48.3995C109.083 48.3236 109.114 48.2515 109.165 48.195C109.281 48.0958 109.422 48.0296 109.573 48.0035C109.723 47.9774 109.878 47.9922 110.021 48.0465C110.329 48.1103 110.603 48.2868 110.787 48.5415C110.826 48.6018 110.846 48.6719 110.845 48.7435C110.845 48.815 110.823 48.8849 110.784 48.9445C110.744 49.0041 110.688 49.0509 110.622 49.0792C110.556 49.1075 110.484 49.1161 110.413 49.104Z" fill="#3F3F3F"/>
<path d="M105.456 54.954C105.578 55.0755 105.695 55.2375 105.88 55.2555C106.069 55.2554 106.256 55.2155 106.429 55.1385C106.429 55.1385 106.461 55.1385 106.429 55.1655C106.356 55.2644 106.256 55.3414 106.142 55.3881C106.027 55.4349 105.903 55.4497 105.78 55.431C105.677 55.4029 105.585 55.3454 105.514 55.2654C105.444 55.1854 105.399 55.0865 105.384 54.981C105.38 54.9714 105.381 54.9609 105.385 54.9516C105.389 54.9423 105.397 54.9351 105.406 54.9315C105.416 54.9279 105.426 54.9283 105.436 54.9325C105.445 54.9367 105.452 54.9444 105.456 54.954Z" fill="#3F3F3F"/>
<path d="M108.403 52.785C108.403 52.785 108.426 53.541 108.403 53.8965C107.711 53.8231 107.011 53.8473 106.326 53.9685C106.163 54.0045 106.181 53.874 106.366 53.7885C106.919 53.5364 107.534 53.4549 108.133 53.5545C108.169 53.46 108.074 52.3845 108.133 52.389C108.405 52.4424 108.669 52.5333 108.917 52.659C108.917 51.075 108.665 49.509 108.687 47.925C108.687 47.871 108.773 47.862 108.782 47.925C109.102 49.6007 109.253 51.3042 109.232 53.01C109.237 53.2035 108.538 52.857 108.403 52.785Z" fill="#3F3F3F"/>
<path d="M107.389 53.6265C107.21 54.0983 106.876 54.4961 106.443 54.756C105.762 55.0305 105.542 54.414 106.227 53.856C106.586 53.6747 106.988 53.5953 107.389 53.6265Z" fill="#3F3F3F"/>
<path d="M106.682 54.6165C106.61 54.675 106.529 54.722 106.443 54.756C105.816 55.008 105.569 54.5085 106.073 54.0045C106.416 54.0315 106.808 54.1575 106.682 54.6165Z" fill="#FF99BA"/>
<path d="M99.9038 50.5485C100.729 50.8005 101.675 48.3255 101.945 47.3985C102.18 46.5615 102.45 43.902 102.491 43.7175C102.531 43.533 106.096 46.071 108.16 45.468C110.224 44.865 111.626 42.9975 111.657 42.129C111.689 41.2605 109.106 39.0555 106.876 38.943C104.645 38.8305 101.621 41.643 101.621 41.643C101.986 41.2291 102.318 40.7867 102.612 40.32C102.576 40.221 101.134 40.797 100.868 41.823C100.868 41.823 101.157 40.5315 101.048 40.509C100.94 40.4865 99.8182 41.589 100.071 42.426C100.071 42.426 98.7726 43.5465 98.6555 44.775C98.5383 46.0035 98.9349 50.2515 99.9038 50.5485Z" fill="#3F3F3F"/>
<path d="M109.638 45C109.024 45.3323 108.363 45.569 107.678 45.702C106.908 45.7705 106.134 45.6468 105.424 45.342C104.709 45.0662 104.045 44.6739 103.459 44.181C102.941 43.758 102.477 43.2405 101.923 42.8625C101.783 42.7635 101.625 42.966 101.711 43.092C102.636 44.3963 103.957 45.3684 105.478 45.864C106.185 46.094 106.939 46.137 107.668 45.9888C108.396 45.8405 109.073 45.506 109.634 45.018C109.634 45.018 109.647 45 109.638 45Z" fill="#3F3F3F"/>
<path d="M100.765 50.328C100.765 50.328 99.4846 47.736 98.3309 48.1545C97.1772 48.573 97.8803 52.1595 99.0655 52.8165C99.2107 52.9103 99.3733 52.9738 99.5437 53.0033C99.7141 53.0328 99.8887 53.0277 100.057 52.9882C100.225 52.9487 100.384 52.8757 100.523 52.7735C100.663 52.6713 100.78 52.542 100.868 52.3935L100.765 50.328Z" fill="#EB9481"/>
<path d="M98.5606 49.176C98.5606 49.176 98.5336 49.176 98.5606 49.212C99.3808 49.698 99.7143 50.562 99.9126 51.462C99.8753 51.3667 99.8176 51.2807 99.7437 51.2098C99.6698 51.139 99.5814 51.085 99.4845 51.0516C99.3877 51.0182 99.2847 51.0062 99.1828 51.0165C99.0808 51.0267 98.9823 51.059 98.8941 51.111C98.8671 51.111 98.8941 51.1605 98.8941 51.1605C99.0553 51.1354 99.2203 51.161 99.3664 51.2335C99.5125 51.306 99.6325 51.422 99.7098 51.5655C99.8388 51.8058 99.9415 52.0592 100.016 52.3215C100.043 52.407 100.192 52.3845 100.178 52.29C100.372 51.1695 99.7413 49.473 98.5606 49.176Z" fill="#3F3F3F"/>
<path d="M92.3146 61.902C91.4133 67.0005 96.9474 84.177 100.494 87.3855C105.771 92.1555 115.528 95.292 119.066 96.3135C120.607 96.7635 124.871 85.932 123.311 85.2165C119.972 83.7 109.598 80.46 108.611 79.65C107.624 78.84 101.675 70.2585 99.025 65.3175C95.4783 58.6665 92.7607 59.3235 92.3146 61.902Z" fill="#EB9481"/>
<path d="M120.684 84.2625C120.684 84.2625 125.29 85.437 128.26 86.3415C129.918 86.85 132.685 87.9705 133.735 88.8975C135.303 90.288 140.973 97.092 139.35 98.5005C137.881 99.7785 133.753 93.312 133.753 93.312C133.753 93.312 138.494 99.468 136.457 100.678C134.42 101.889 130.693 93.9645 130.693 93.9645C130.693 93.9645 135.421 100.399 133.109 101.313C131.36 102.001 127.611 95.013 127.611 95.013C127.611 95.013 131.64 100.57 129.864 101.358C127.908 102.231 124.046 95.994 124.046 95.994C119.215 97.2405 116.384 95.859 114.523 94.644C114.086 94.347 120.684 84.2625 120.684 84.2625Z" fill="#EB9481"/>
<path d="M132.248 91.0755C132.834 91.7775 133.429 92.4885 133.947 93.24C134.465 93.9915 134.957 94.7655 135.403 95.562C136.007 96.5922 136.491 97.6884 136.845 98.829C136.07 96.849 134.253 94.1265 133.735 93.375C133.217 92.6235 132.735 91.845 132.221 91.0935C132.207 91.0755 132.234 91.0575 132.248 91.0755Z" fill="#3F3F3F"/>
<path d="M129.494 92.898C130.495 93.69 132.591 96.633 133.397 98.6085C133.433 98.6895 133.397 98.685 133.339 98.6085C132.708 97.632 130.148 93.852 129.472 92.9115C129.458 92.898 129.481 92.8845 129.494 92.898Z" fill="#3F3F3F"/>
<path d="M126.849 94.05C128.092 95.3519 129.074 96.8794 129.742 98.55C129.774 98.631 129.711 98.6175 129.661 98.55C128.728 97.0335 128.007 95.85 126.799 94.0905C126.781 94.05 126.822 94.0095 126.849 94.05Z" fill="#3F3F3F"/>
<path d="M97.344 62.2755C93.2294 56.466 90.7688 58.617 91.5935 64.926C92.3686 70.8255 94.4372 77.8545 94.4372 77.8545L104.802 72.8325C104.802 72.8325 99.9623 65.997 97.344 62.2755Z" fill="#D2E4FF"/>
<path d="M99.8452 64.5615C99.9818 64.8896 100.08 65.2324 100.138 65.583C100.201 65.9347 100.224 66.2926 100.206 66.6495C100.071 66.3196 99.9738 65.9754 99.9173 65.6235C99.8503 65.2737 99.8261 64.9171 99.8452 64.5615Z" fill="white"/>
<path d="M93.7026 68.094C94.3641 67.8253 95.0759 67.7025 95.7892 67.734C95.4604 67.8689 95.1172 67.9656 94.7662 68.022C94.4159 68.0888 94.0588 68.113 93.7026 68.094Z" fill="white"/>
<path d="M93.9684 59.058C93.6893 59.7156 93.2729 60.3063 92.7471 60.7905C93.0262 60.1328 93.4425 59.5422 93.9684 59.058Z" fill="white"/>
<path d="M102.752 70.8075C102.615 71.1366 102.441 71.4491 102.234 71.739C102.031 72.0326 101.795 72.3014 101.531 72.54C101.81 71.8823 102.226 71.2917 102.752 70.8075Z" fill="white"/>
<path d="M95.5412 74.331C95.2108 74.196 94.8977 74.0223 94.6083 73.8135C94.3142 73.6118 94.045 73.3762 93.8062 73.1115C94.4648 73.3902 95.0563 73.8059 95.5412 74.331Z" fill="white"/>
<path d="M98.6959 64.026C99.2502 64.7865 99.8225 65.529 100.39 66.276C100.246 65.898 100.12 65.5155 100.012 65.1285H100.039C100.152 65.4255 100.282 65.718 100.39 66.0285L100.553 66.4785C100.567 66.5092 100.579 66.5408 100.589 66.573C101.039 67.1535 101.49 67.734 101.905 68.328C102.414 69.039 102.905 69.759 103.401 70.479C103.897 71.199 104.397 72.0945 104.933 72.819C104.983 72.882 104.032 73.269 103.928 73.3185C103.824 73.368 103.77 73.2825 103.87 73.251C103.969 73.2195 104.726 72.756 104.735 72.747C104.239 72.018 103.667 71.3475 103.148 70.641C102.63 69.9345 102.116 69.228 101.616 68.5125C100.602 67.0545 99.6738 65.5425 98.6643 64.08L98.6959 64.026Z" fill="#3F3F3F"/>
<path d="M91.8369 69.102C91.9946 69.408 92.1659 69.7095 92.2875 70.0245L92.4588 70.416C92.2199 69.2955 92.0081 68.166 91.7603 67.0455C92.238 68.8455 92.7202 70.686 93.1618 72.513C93.5809 74.259 94.0902 76.023 94.3336 77.805C94.6478 77.6673 94.9735 77.5574 95.307 77.4765C94.9724 77.6927 94.6121 77.8666 94.2344 77.994C93.6912 76.1819 93.2399 74.3435 92.8824 72.486C92.7697 71.982 92.6661 71.478 92.5579 70.974C92.4408 70.668 92.3011 70.3755 92.1613 70.074C92.0216 69.7725 91.8955 69.435 91.7693 69.1155C91.7963 69.0975 91.8279 69.0795 91.8369 69.102Z" fill="#3F3F3F"/>
<path d="M94.5904 76.1175C96.0326 75.3075 102.058 72.1935 103.405 71.6175C103.5 71.577 103.55 71.6175 103.455 71.6805C100.595 73.3399 97.6462 74.8422 94.622 76.1805C94.5859 76.1895 94.5499 76.14 94.5904 76.1175Z" fill="#3F3F3F"/>
<path d="M259.728 194.422H122.419L142.271 81.99H279.58L259.728 194.422Z" fill="#D2E4FF"/>
<path d="M189.267 70.344H144.331L142.271 81.99H190.362L189.267 70.344Z" fill="#D2E4FF"/>
<g opacity="0.1">
<path opacity="0.1" d="M259.728 194.422H122.419L142.271 81.99H279.58L259.728 194.422Z" fill="#3F3F3F"/>
<path opacity="0.1" d="M189.267 70.344H144.331L142.271 81.99H190.362L189.267 70.344Z" fill="#3F3F3F"/>
</g>
<path d="M139.481 75.096C139.181 73.8083 139.181 72.4688 139.481 71.181C139.782 72.4688 139.782 73.8083 139.481 75.096Z" fill="#3F3F3F"/>
<path d="M135.489 76.248C135.03 75.7729 134.634 75.2404 134.312 74.664C133.975 74.0995 133.71 73.4947 133.524 72.864C133.984 73.3363 134.379 73.8674 134.7 74.4435C135.037 75.0099 135.302 75.6161 135.489 76.248Z" fill="#3F3F3F"/>
<path d="M132.604 79.2405C131.338 78.856 130.177 78.1863 129.211 77.283C129.842 77.4664 130.448 77.7295 131.013 78.066C131.591 78.3896 132.125 78.7842 132.604 79.2405Z" fill="#3F3F3F"/>
<path d="M131.595 83.2725C130.305 83.5725 128.964 83.5725 127.674 83.2725C128.964 82.9725 130.305 82.9725 131.595 83.2725Z" fill="#3F3F3F"/>
<path d="M132.766 87.2595C132.289 87.7153 131.756 88.1099 131.18 88.434C130.615 88.7705 130.009 89.0336 129.377 89.217C129.853 88.7588 130.386 88.364 130.964 88.0425C131.528 87.7044 132.134 87.4412 132.766 87.2595Z" fill="#3F3F3F"/>
<path d="M135.759 90.135C135.375 91.4014 134.704 92.5624 133.799 93.528C133.982 92.8963 134.247 92.2913 134.587 91.728C134.909 91.1495 135.302 90.6142 135.759 90.135Z" fill="#3F3F3F"/>
<path d="M139.797 91.1295C139.954 91.77 140.03 92.4276 140.022 93.087C140.032 93.7465 139.956 94.4044 139.797 95.0445C139.635 94.4048 139.56 93.7466 139.572 93.087C139.564 92.4276 139.64 91.77 139.797 91.1295Z" fill="#3F3F3F"/>
<path d="M143.79 90C144.249 90.4751 144.644 91.0075 144.966 91.584C145.305 92.1474 145.568 92.7525 145.75 93.384C144.844 92.4185 144.173 91.2574 143.79 89.991V90Z" fill="#3F3F3F"/>
<path d="M146.67 86.985C147.302 87.1667 147.908 87.4299 148.472 87.768C149.05 88.0895 149.583 88.4843 150.059 88.9425C149.426 88.7608 148.82 88.4976 148.256 88.1595C147.679 87.838 147.146 87.4432 146.67 86.985Z" fill="#3F3F3F"/>
<path d="M147.666 82.953C148.957 82.653 150.3 82.653 151.591 82.953C150.3 83.2529 148.957 83.2529 147.666 82.953Z" fill="#3F3F3F"/>
<path d="M146.512 78.966C146.989 78.5105 147.522 78.1174 148.098 77.796C148.661 77.4546 149.268 77.1898 149.901 77.0085C148.934 77.9131 147.771 78.5829 146.503 78.966H146.512Z" fill="#3F3F3F"/>
<path d="M143.515 76.0905C143.7 75.4603 143.964 74.8557 144.299 74.2905C144.621 73.714 145.016 73.1816 145.475 72.7065C145.293 73.338 145.03 73.9431 144.691 74.5065C144.369 75.083 143.974 75.6154 143.515 76.0905Z" fill="#3F3F3F"/>
<path d="M259.526 194.423H121.923L102.383 86.0715H239.989L259.526 194.423Z" fill="#D2E4FF"/>
<path d="M150.068 152.307C153.226 152.307 155.787 149.75 155.787 146.596C155.787 143.443 153.226 140.886 150.068 140.886C146.909 140.886 144.349 143.443 144.349 146.596C144.349 149.75 146.909 152.307 150.068 152.307Z" fill="#3F3F3F"/>
<path d="M195.279 152.307C198.437 152.307 200.997 149.75 200.997 146.596C200.997 143.443 198.437 140.886 195.279 140.886C192.12 140.886 189.56 143.443 189.56 146.596C189.56 149.75 192.12 152.307 195.279 152.307Z" fill="#3F3F3F"/>
<path d="M180.889 153.22L180.573 152.622C180.546 152.568 177.59 147.114 171.645 147.114C166.237 147.114 164.885 152.248 164.849 152.469L164.687 153.121L163.376 152.806L163.533 152.149C163.533 152.086 165.147 145.764 171.645 145.764C178.405 145.764 181.637 151.74 181.772 151.996L182.087 152.59L180.889 153.22Z" fill="#3F3F3F"/>
<path d="M250.44 146.16L250.345 145.71C250.638 145.647 250.927 145.58 251.215 145.503L251.328 145.953C251.021 146.03 250.737 146.097 250.44 146.16Z" fill="#3F3F3F"/>
<path d="M253.072 145.436L252.928 145.013C253.491 144.819 254.054 144.607 254.6 144.378L254.775 144.792C254.221 145.026 253.649 145.242 253.072 145.436ZM256.429 144L256.226 143.604C256.754 143.329 257.281 143.033 257.781 142.704L258.016 143.087C257.502 143.442 256.966 143.743 256.429 144ZM259.53 142.096L259.264 141.732C259.751 141.376 260.219 141.003 260.661 140.62L260.958 140.958C260.485 141.368 260.035 141.75 259.525 142.115L259.53 142.096ZM262.279 139.703L261.95 139.392C262.365 138.942 262.757 138.492 263.117 138.042L263.473 138.316C263.099 138.812 262.698 139.275 262.288 139.72L262.279 139.703ZM264.51 136.822L264.127 136.584C264.438 136.081 264.715 135.558 264.956 135.018L265.37 135.203C265.116 135.766 264.827 136.313 264.505 136.84L264.51 136.822ZM266.001 133.484L265.551 133.358C265.715 132.793 265.837 132.217 265.916 131.634L266.366 131.692C266.292 132.304 266.168 132.909 265.997 133.502L266.001 133.484ZM266.502 129.884H266.051V129.753C266.051 129.209 266.019 128.655 265.965 128.111L266.416 128.065C266.475 128.626 266.505 129.189 266.506 129.753L266.502 129.884ZM265.69 126.36C265.569 125.78 265.419 125.206 265.24 124.641L265.69 124.506C265.875 125.091 266.033 125.685 266.141 126.266L265.69 126.36ZM264.622 122.971C264.406 122.44 264.172 121.896 263.883 121.347L264.289 121.145C264.564 121.702 264.816 122.261 265.037 122.801L264.622 122.971ZM263.045 119.763C262.766 119.273 262.459 118.755 262.144 118.224L262.527 117.986C262.856 118.521 263.167 119.043 263.428 119.542L263.045 119.763ZM261.161 116.708C260.832 116.213 260.499 115.713 260.156 115.214L260.53 114.962C260.873 115.461 261.206 115.961 261.535 116.465L261.161 116.708ZM259.133 113.729C258.795 113.233 258.453 112.734 258.119 112.239L258.493 111.987C258.827 112.482 259.165 112.982 259.503 113.472L259.133 113.729ZM257.119 110.732C256.79 110.228 256.47 109.715 256.154 109.201L256.537 108.967C256.853 109.48 257.173 109.984 257.497 110.489L257.119 110.732ZM255.239 107.64C254.933 107.096 254.649 106.556 254.392 106.038L254.798 105.836C255.05 106.349 255.334 106.88 255.632 107.42L255.239 107.64ZM253.64 104.4C253.401 103.838 253.189 103.266 252.991 102.708L253.441 102.564C253.631 103.109 253.842 103.671 254.077 104.225L253.64 104.4ZM252.468 100.966C252.319 100.382 252.188 99.783 252.089 99.1665L252.54 99.0945C252.639 99.6705 252.761 100.256 252.91 100.832L252.468 100.966ZM251.864 97.3665C251.819 96.813 251.796 96.255 251.796 95.697V95.5485H252.247V95.6925C252.247 96.237 252.247 96.786 252.315 97.326L251.864 97.3665ZM252.315 93.7665L251.864 93.7215C251.864 93.6 251.887 93.474 251.9 93.3435C251.954 92.862 252.022 92.3805 252.103 91.9215L252.554 91.998C252.477 92.448 252.409 92.9205 252.355 93.393C252.373 93.5325 252.373 93.654 252.337 93.78L252.315 93.7665ZM252.941 90.2655L252.49 90.144C252.657 89.55 252.851 88.9695 253.067 88.416L253.486 88.578C253.282 89.1352 253.107 89.703 252.964 90.279L252.941 90.2655ZM275.398 87.642C275.145 87.642 274.884 87.606 274.627 87.57C274.276 87.5205 273.924 87.462 273.577 87.3945L273.667 86.9445C274.001 87.0075 274.348 87.066 274.69 87.1155C274.934 87.147 275.182 87.1695 275.42 87.183L275.398 87.642ZM277.25 87.5025L277.155 87.0525C277.721 86.9359 278.263 86.726 278.76 86.4315L278.994 86.814C278.463 87.142 277.882 87.3792 277.273 87.516L277.25 87.5025ZM254.239 86.967L253.838 86.7555C254.125 86.2188 254.442 85.699 254.789 85.1985L255.158 85.455C254.829 85.9451 254.53 86.4545 254.262 86.9805L254.239 86.967ZM271.815 86.94C271.233 86.7557 270.662 86.5409 270.103 86.2965L270.287 85.8825C270.829 86.1229 271.384 86.3317 271.95 86.508L271.815 86.94ZM280.378 85.536L280.004 85.284C280.325 84.8192 280.514 84.2767 280.553 83.7135L281.004 83.745C280.966 84.3906 280.754 85.0139 280.391 85.5495L280.378 85.536ZM268.48 85.4685C267.953 85.1624 267.443 84.8274 266.952 84.465L267.218 84.105C267.695 84.4564 268.192 84.7809 268.705 85.077L268.48 85.4685ZM256.267 84.0645L255.934 83.763C256.342 83.3098 256.776 82.8816 257.236 82.4805L257.533 82.818C257.091 83.213 256.673 83.6337 256.281 84.078L256.267 84.0645ZM265.546 83.304C265.097 82.8911 264.672 82.454 264.271 81.9945L264.609 81.6975C264.999 82.1438 265.413 82.5689 265.848 82.971L265.546 83.304ZM280.215 82.0845C279.957 81.5702 279.601 81.1116 279.165 80.7345L279.463 80.397C279.942 80.8106 280.335 81.3135 280.621 81.8775L280.215 82.0845ZM258.935 81.729L258.678 81.36C259.182 81.0163 259.704 80.6994 260.242 80.4105L260.454 80.8065C259.936 81.0922 259.434 81.4046 258.948 81.7425L258.935 81.729ZM263.144 80.559C262.973 80.316 262.806 80.0685 262.648 79.812L262.063 80.0415L261.891 79.6275L262.41 79.4205C262.328 79.2855 262.247 79.1505 262.171 79.0155L262.563 78.795C262.653 78.9525 262.743 79.11 262.838 79.245C263.09 79.155 263.347 79.0695 263.608 78.9885L263.739 79.4385C263.518 79.506 263.288 79.578 263.081 79.6545C263.221 79.875 263.365 80.1045 263.532 80.298L263.144 80.559ZM277.714 79.785C277.278 79.568 276.826 79.3845 276.362 79.236L276.065 79.1415L276.195 78.6915L276.502 78.7905C276.985 78.9442 277.455 79.1352 277.908 79.362L277.714 79.785ZM265.465 78.9795L265.37 78.5295C265.952 78.399 266.556 78.291 267.173 78.2055L267.241 78.6555C266.646 78.75 266.056 78.8625 265.479 78.993L265.465 78.9795ZM274.343 78.7365C273.78 78.6375 273.185 78.561 272.577 78.507L272.613 78.057C273.239 78.111 273.848 78.1875 274.415 78.291L274.343 78.7365ZM269.003 78.4755L268.971 78.0255C269.508 77.994 270.044 77.976 270.576 77.976H270.797V78.426H270.58C270.071 78.4395 269.539 78.453 269.016 78.489L269.003 78.4755ZM261.387 77.4C261.143 76.851 260.936 76.2795 260.733 75.699L261.184 75.5595C261.373 76.1265 261.585 76.6845 261.819 77.22L261.387 77.4ZM260.246 73.944C260.111 73.3635 259.999 72.7605 259.913 72.144L260.364 72.081C260.449 72.675 260.557 73.2645 260.688 73.836L260.246 73.944ZM259.742 70.344C259.719 69.939 259.706 69.525 259.706 69.111C259.706 68.9175 259.706 68.7195 259.706 68.526H260.156C260.156 68.7195 260.156 68.9085 260.156 69.102C260.156 69.507 260.156 69.9165 260.188 70.308L259.742 70.344ZM260.278 66.744L259.827 66.699C259.89 66.105 259.976 65.4975 260.08 64.899L260.53 64.9755C260.409 65.574 260.323 66.15 260.264 66.753L260.278 66.744ZM260.895 63.2295L260.445 63.1215C260.589 62.541 260.756 61.956 260.94 61.371L261.391 61.5105C261.188 62.1 261.022 62.6715 260.882 63.2385L260.895 63.2295ZM261.977 59.823L261.558 59.661C261.779 59.0985 262.009 58.536 262.283 57.9915L262.689 58.1895C262.419 58.7295 262.18 59.2785 261.963 59.85L261.977 59.823ZM263.527 56.6145L263.135 56.385C263.442 55.8675 263.771 55.35 264.113 54.855L264.483 55.1115C264.131 55.6065 263.811 56.1105 263.514 56.6235L263.527 56.6145ZM265.56 53.685L265.208 53.4015C265.587 52.9515 265.992 52.4745 266.412 52.0515L266.736 52.362C266.312 52.785 265.916 53.235 265.546 53.694L265.56 53.685ZM268.011 51.093L267.709 50.76C268.16 50.3595 268.611 49.9635 269.093 49.581L269.372 49.9365C268.89 50.319 268.431 50.7105 267.998 51.102L268.011 51.093ZM270.81 48.87L270.553 48.4965C271.044 48.159 271.558 47.826 272.081 47.511L272.311 47.8935C271.788 48.213 271.301 48.5415 270.797 48.879L270.81 48.87ZM273.87 47.0115L273.658 46.6155C274.19 46.332 274.74 46.062 275.29 45.81L275.479 46.2195C274.907 46.476 274.379 46.746 273.857 47.0205L273.87 47.0115ZM277.128 45.5175L276.962 45.0945C277.529 44.874 278.102 44.6445 278.67 44.478L278.814 44.928C278.242 45.099 277.674 45.306 277.115 45.5265L277.128 45.5175Z" fill="#3F3F3F"/>
<path d="M280.603 44.379L280.49 43.929C281.049 43.785 281.392 43.722 281.392 43.722L281.473 44.172C281.473 44.172 281.148 44.2395 280.603 44.379Z" fill="#3F3F3F"/>
<path d="M288.571 41.472C287.422 37.917 279.724 39.195 281.225 43.8435C282.726 48.492 289.72 45.0315 288.571 41.472Z" fill="#3F3F3F"/>
<path d="M277.038 40.05C277.097 38.4885 279.269 37.287 282.343 37.8405C285.416 38.394 288.305 40.464 288.305 40.464C288.305 40.464 285.272 42.3 282.167 42.6375C279.062 42.975 276.98 41.607 277.038 40.05Z" fill="#EBEBEB"/>
<path d="M288.305 40.455C286.709 40.455 285.119 40.41 283.528 40.3605C281.937 40.311 280.342 40.23 278.751 40.104C280.346 40.104 281.941 40.1445 283.532 40.194C285.123 40.2435 286.718 40.3245 288.305 40.455Z" fill="#3F3F3F"/>
<path d="M280.125 38.6595C281.031 39.0922 281.885 39.625 282.671 40.248C282.218 40.0356 281.779 39.7952 281.356 39.528C280.929 39.2627 280.518 38.9727 280.125 38.6595Z" fill="#3F3F3F"/>
<path d="M284.303 40.3065C283.488 40.9663 282.604 41.5365 281.667 42.0075C282.486 41.347 283.374 40.7767 284.316 40.3065H284.303Z" fill="#3F3F3F"/>
<path d="M284.767 39.429C285.222 39.6471 285.62 39.9674 285.93 40.365C285.702 40.2578 285.489 40.1234 285.294 39.9645C285.099 39.8067 284.922 39.627 284.767 39.429Z" fill="#3F3F3F"/>
<path d="M279.967 49.2975C280.927 50.5305 283.392 50.2335 285.56 47.9925C287.728 45.7515 288.877 42.381 288.877 42.381C288.877 42.381 285.326 42.651 282.617 44.181C279.909 45.711 279.003 48.06 279.967 49.2975Z" fill="#EBEBEB"/>
<path d="M288.877 42.381C287.579 43.281 286.317 44.28 285.051 45.2475C283.785 46.215 282.545 47.214 281.333 48.2445C282.631 47.3445 283.893 46.35 285.155 45.3825C286.417 44.415 287.647 43.416 288.877 42.381Z" fill="#3F3F3F"/>
<path d="M283.28 48.6C283.521 48.1629 283.736 47.7121 283.924 47.25C284.116 46.7866 284.279 46.3117 284.411 45.828C284.17 46.2648 283.954 46.7156 283.767 47.178C283.577 47.6421 283.414 48.1169 283.28 48.6Z" fill="#3F3F3F"/>
<path d="M285.723 44.838C284.668 44.7817 283.611 44.8375 282.568 45.0045C283.093 45.036 283.62 45.036 284.145 45.0045C284.674 44.9788 285.2 44.9232 285.723 44.838Z" fill="#3F3F3F"/>
<path d="M286.592 45.2835C286.713 45.0613 286.806 44.8257 286.872 44.5815C286.938 44.3392 286.978 44.0901 286.989 43.839C286.749 44.2845 286.614 44.7783 286.592 45.2835Z" fill="#3F3F3F"/>
<path d="M288.571 41.472C288.316 41.5545 288.043 41.5598 287.785 41.4871C287.528 41.4144 287.298 41.2671 287.124 41.0637C286.951 40.8603 286.841 40.6101 286.81 40.3447C286.779 40.0793 286.828 39.8107 286.95 39.5728C287.072 39.335 287.262 39.1386 287.495 39.0086C287.729 38.8786 287.996 38.8208 288.263 38.8425C288.53 38.8642 288.784 38.9644 288.994 39.1305C289.203 39.2966 289.359 39.5211 289.441 39.7755C289.55 40.1157 289.52 40.4852 289.357 40.8032C289.194 41.1212 288.911 41.3617 288.571 41.472Z" fill="#455A64"/>
<path d="M289.4 44.0415C289.146 44.1237 288.873 44.1287 288.615 44.056C288.358 43.9832 288.128 43.836 287.955 43.6328C287.781 43.4296 287.672 43.1796 287.641 42.9145C287.61 42.6494 287.658 42.3809 287.78 42.1432C287.901 41.9054 288.091 41.709 288.324 41.5787C288.557 41.4484 288.824 41.3902 289.091 41.4113C289.357 41.4324 289.612 41.532 289.821 41.6974C290.031 41.8628 290.187 42.0866 290.27 42.3405C290.325 42.5092 290.346 42.6871 290.332 42.8639C290.318 43.0407 290.269 43.213 290.188 43.371C290.107 43.5289 289.996 43.6695 289.861 43.7845C289.726 43.8996 289.569 43.9869 289.4 44.0415Z" fill="#455A64"/>
<path d="M141.649 42.894C141.433 44.9609 140.646 46.9273 139.376 48.5736C138.106 50.22 136.403 51.4815 134.457 52.2175C132.51 52.9536 130.397 53.1351 128.354 52.7418C126.31 52.3486 124.416 51.396 122.883 49.9905L117.263 50.814L120.076 45.963C119.432 44.3846 119.158 42.6806 119.273 40.9804C119.388 39.2802 119.89 37.6286 120.74 36.1511C121.59 34.6735 122.767 33.4088 124.179 32.4531C125.592 31.4973 127.205 30.8757 128.894 30.6353C130.584 30.395 132.306 30.5423 133.93 31.066C135.554 31.5897 137.037 32.4761 138.267 33.6578C139.496 34.8395 140.44 36.2855 141.026 37.8859C141.612 39.4863 141.825 41.1991 141.649 42.894Z" fill="white"/>
<path d="M141.649 42.894C141.438 44.9599 140.658 46.927 139.396 48.5775C138.779 49.4123 138.035 50.1457 137.192 50.751C136.367 51.3791 135.456 51.8867 134.488 52.2585C133.519 52.6395 132.501 52.8819 131.464 52.9785C130.945 53.025 130.424 53.0355 129.905 53.01C129.383 52.9966 128.863 52.9425 128.35 52.848C126.279 52.4675 124.354 51.5185 122.793 50.1075L122.924 50.148L117.313 51.0075L116.903 51.0705L117.11 50.7105L119.904 45.8505V46.044C119.245 44.4364 118.965 42.699 119.085 40.966C119.205 39.233 119.723 37.5508 120.598 36.0495C121.472 34.5529 122.674 33.273 124.113 32.3055C125.551 31.3509 127.185 30.7335 128.895 30.4997C130.606 30.2659 132.346 30.4217 133.988 30.9555C135.611 31.5071 137.091 32.4142 138.319 33.6105C139.543 34.8038 140.48 36.26 141.057 37.8685C141.634 39.477 141.836 41.1957 141.649 42.894ZM141.649 42.894C141.831 41.204 141.622 39.4949 141.037 37.8985C140.453 36.3021 139.509 34.8611 138.278 33.687C137.047 32.5128 135.562 31.6367 133.939 31.1265C132.315 30.6162 130.596 30.4853 128.913 30.744C127.248 30.9902 125.661 31.6153 124.276 32.571C122.902 33.5343 121.755 34.7841 120.914 36.234C120.085 37.6871 119.597 39.3086 119.485 40.977C119.375 42.6567 119.647 44.3395 120.278 45.9L120.319 45.999L120.265 46.0935L117.435 50.9355L117.236 50.6385L122.861 49.851H122.937L122.991 49.9005C124.495 51.2978 126.358 52.2498 128.372 52.65C128.874 52.7521 129.384 52.8138 129.896 52.8345C130.407 52.8705 130.921 52.8705 131.432 52.8345C132.458 52.752 133.468 52.5294 134.434 52.173C135.401 51.8212 136.312 51.33 137.138 50.715C137.978 50.1145 138.722 49.3909 139.346 48.5685C140.624 46.926 141.421 44.9617 141.649 42.894Z" fill="#3F3F3F"/>
<path d="M124.988 46.9575C124.979 46.8085 125.001 46.6594 125.053 46.5193C125.104 46.3792 125.184 46.2512 125.287 46.1431C125.39 46.0351 125.514 45.9494 125.652 45.8913C125.79 45.8332 125.938 45.804 126.087 45.8055C126.393 45.8055 126.687 45.9269 126.903 46.1429C127.119 46.359 127.241 46.652 127.241 46.9575C127.241 47.2631 127.119 47.5561 126.903 47.7721C126.687 47.9882 126.393 48.1095 126.087 48.1095C125.938 48.111 125.79 48.0818 125.652 48.0237C125.514 47.9657 125.39 47.8799 125.287 47.7719C125.184 47.6639 125.104 47.5359 125.053 47.3958C125.001 47.2557 124.979 47.1065 124.988 46.9575ZM125.438 44.298L125.177 35.37H126.98L126.718 44.298H125.438Z" fill="#D2E4FF"/>
<path d="M129.274 46.9575C129.265 46.8089 129.287 46.6601 129.338 46.5203C129.389 46.3806 129.469 46.2527 129.571 46.1448C129.674 46.0368 129.798 45.951 129.935 45.8927C130.072 45.8343 130.22 45.8047 130.369 45.8055C130.675 45.8055 130.968 45.9269 131.184 46.1429C131.401 46.359 131.522 46.652 131.522 46.9575C131.522 47.2631 131.401 47.5561 131.184 47.7721C130.968 47.9882 130.675 48.1095 130.369 48.1095C130.22 48.1104 130.072 48.0807 129.935 48.0224C129.798 47.964 129.674 47.8782 129.571 47.7703C129.469 47.6623 129.389 47.5345 129.338 47.3947C129.287 47.2549 129.265 47.1061 129.274 46.9575ZM129.724 44.298L129.476 35.37H131.279L131.018 44.298H129.724Z" fill="#D2E4FF"/>
<path d="M133.555 46.9575C133.546 46.8085 133.569 46.6594 133.62 46.5193C133.671 46.3792 133.751 46.2512 133.854 46.1431C133.957 46.0351 134.082 45.9494 134.219 45.8913C134.357 45.8332 134.505 45.804 134.655 45.8055C134.961 45.8055 135.254 45.9269 135.47 46.1429C135.687 46.359 135.808 46.652 135.808 46.9575C135.808 47.2631 135.687 47.5561 135.47 47.7721C135.254 47.9882 134.961 48.1095 134.655 48.1095C134.505 48.111 134.357 48.0818 134.219 48.0237C134.082 47.9657 133.957 47.8799 133.854 47.7719C133.751 47.6639 133.671 47.5359 133.62 47.3958C133.569 47.2557 133.546 47.1065 133.555 46.9575ZM134.006 44.298L133.744 35.37H135.547L135.29 44.298H134.006Z" fill="#D2E4FF"/>
</svg>
