<svg width="2240" height="2000" viewBox="0 0 2240 2000" fill="none" xmlns="http://www.w3.org/2000/svg">
<path d="M117 53H119V63H117V53Z" fill="#1E0094"/>
<path d="M113 49H115V63H113V49Z" fill="#1E0094"/>
<path d="M109 57H111V63H109V57Z" fill="#1E0094"/>
<path d="M111.175 45L112.76 43.734C111.286 41.8916 109.206 40.6328 106.89 40.182C105.599 39.9326 104.273 39.9401 102.985 40.2039C101.697 40.4677 100.474 40.9827 99.3858 41.7194C98.2973 42.4562 97.3647 43.4002 96.6414 44.4976C95.918 45.595 95.418 46.8243 95.17 48.115C93.2843 48.4555 91.6003 49.5045 90.4631 51.0468C89.3259 52.5891 88.8218 54.5079 89.054 56.41C89.3197 58.2585 90.2494 59.947 91.6695 61.1598C93.0896 62.3726 94.9027 63.0268 96.77 63H105V61H96.694C95.3843 61.0204 94.1084 60.5836 93.0859 59.7649C92.0635 58.9461 91.3584 57.7965 91.092 56.514C90.9586 55.8005 90.9677 55.0676 91.1186 54.3575C91.2695 53.6475 91.5594 52.9743 91.9715 52.3767C92.3836 51.7791 92.9098 51.2689 93.5198 50.8754C94.1298 50.4819 94.8116 50.213 95.526 50.084L96.875 49.839L97.089 48.729C97.3894 47.0613 98.1988 45.5274 99.406 44.3381C100.613 43.1489 102.159 42.3625 103.831 42.087C104.835 41.938 105.858 41.9821 106.845 42.217C108.562 42.6283 110.088 43.6094 111.175 45Z" fill="#1E0094"/>
</svg>
