<svg width="16" height="22" viewBox="0 0 16 22" fill="none" xmlns="http://www.w3.org/2000/svg">
<path d="M14.2222 2.44444V19.5556H1.77778V2.44444H14.2222ZM15.2 0H0.8C0.355556 0 0 0.488889 0 1.1V20.9C0 21.3889 0.355556 22 0.8 22H15.2C15.5556 22 16 21.3889 16 20.9V1.1C16 0.488889 15.5556 0 15.2 0ZM7.11111 4.88889H12.4444V7.33333H7.11111V4.88889ZM7.11111 9.77778H12.4444V12.2222H7.11111V9.77778ZM7.11111 14.6667H12.4444V17.1111H7.11111V14.6667ZM3.55556 4.88889H5.33333V7.33333H3.55556V4.88889ZM3.55556 9.77778H5.33333V12.2222H3.55556V9.77778ZM3.55556 14.6667H5.33333V17.1111H3.55556V14.6667Z" fill="#05AC8C"/>
</svg>
